<svg width="87" height="63" viewBox="0 0 87 63" fill="none" xmlns="http://www.w3.org/2000/svg">
<path d="M18.5559 2.40001V25.88C18.5826 26.5733 18.8359 27.16 19.3159 27.64C19.8226 28.12 20.4226 28.36 21.1159 28.36H21.5959L21.6359 28.76H9.47592V28.36H9.99592C10.6626 28.36 11.2359 28.12 11.7159 27.64C12.2226 27.16 12.5026 26.5867 12.5559 25.92V2.40001H7.15592C5.92926 2.42667 4.95592 2.81334 4.23592 3.56001C3.51592 4.30667 3.15592 5.28001 3.15592 6.48001V6.96001H2.75592V8.10623e-06C3.84926 0.453342 5.42259 0.693342 7.47592 0.720008H23.5959C24.4226 0.720008 25.3159 0.640009 26.2759 0.480009C27.2626 0.320008 27.9426 0.160008 28.3159 8.10623e-06V6.96001H27.9159V6.48001C27.9159 4.82668 27.2893 3.65334 26.0359 2.96001C25.4493 2.61334 24.7426 2.42667 23.9159 2.40001H18.5559ZM48.4965 28.36C49.1899 28.36 49.7232 28.1867 50.0965 27.84C50.7099 27.2267 51.0299 26.5733 51.0566 25.88V15.68H38.0965V25.84C38.0965 26.5333 38.3499 27.1333 38.8565 27.64C39.3632 28.12 39.9632 28.36 40.6565 28.36H41.1365L41.1765 28.76H29.0165V28.36H29.5365C30.2299 28.36 30.8165 28.12 31.2965 27.64C31.8032 27.1333 32.0699 26.5333 32.0965 25.84V3.68001C32.0699 2.98667 31.8032 2.40001 31.2965 1.92001C30.8165 1.41334 30.2299 1.16001 29.5365 1.16001H29.0165V0.760008H41.1765L41.1365 1.16001H40.6565C39.9632 1.16001 39.3632 1.41334 38.8565 1.92001C38.3499 2.40001 38.0965 2.98667 38.0965 3.68001V13.96H51.0566V3.68001C51.0299 2.98667 50.7632 2.40001 50.2565 1.92001C49.7765 1.41334 49.1899 1.16001 48.4965 1.16001H47.9765V0.760008H60.1365V1.16001H59.6165C58.9232 1.16001 58.3232 1.41334 57.8165 1.92001C57.3099 2.40001 57.0565 2.98667 57.0565 3.68001V25.84C57.0565 26.5333 57.3099 27.1333 57.8165 27.64C58.3232 28.12 58.9232 28.36 59.6165 28.36H60.1365V28.76H47.9765V28.36H48.4965ZM62.4897 28.36C63.183 28.36 63.7697 28.12 64.2497 27.64C64.7563 27.1333 65.023 26.5333 65.0497 25.84V3.56001C64.9963 2.86668 64.7963 2.36001 64.4497 2.04001C63.8097 1.45334 63.1563 1.16001 62.4897 1.16001H61.9697V0.760008H77.2897C78.5963 0.760008 79.6763 0.666675 80.5297 0.480009C81.383 0.266675 81.903 0.120008 82.0897 0.0400076V7.04001L81.6897 7.00001V6.56001C81.6897 4.90668 81.0763 3.73334 79.8497 3.04001C79.263 2.69334 78.5697 2.50668 77.7697 2.48001H71.0497V14.12H76.3297C77.3163 14.0933 78.1297 13.76 78.7697 13.12C79.4097 12.4533 79.7297 11.64 79.7297 10.68V10.32H80.1297V19.56H79.7297V19.24C79.7297 18.2533 79.4097 17.44 78.7697 16.8C78.1563 16.16 77.3697 15.8267 76.4097 15.8H71.0497V27.04H76.2897C78.2363 27.04 79.863 26.48 81.1697 25.36C82.503 24.24 83.4897 22.6533 84.1297 20.6H84.5297L82.6897 28.76H61.9697V28.36H62.4897ZM38.24 61.36H38.88V61.76H26.88V61.4H27.48C27.9333 61.3733 28.32 61.1867 28.64 60.84C28.96 60.4933 29.0933 60.1067 29.04 59.68L27.48 45.16L19.96 58.12C18.9733 59.7733 18.4667 61.2533 18.44 62.56H18.04L7.75999 45.28L6.19999 59.68C6.14665 60.1067 6.27999 60.5067 6.59999 60.88C6.91999 61.2267 7.30665 61.4 7.75999 61.4H8.35999V61.76H-1.46702e-05V61.36H0.639985C1.38665 61.36 2.02665 61.1333 2.55999 60.68C3.11999 60.2267 3.45332 59.6133 3.55999 58.84L6.87999 33.2H7.23999L19.64 53.6L31.56 33.2H31.92L35.32 58.84C35.4533 59.6133 35.7867 60.2267 36.32 60.68C36.88 61.1333 37.52 61.36 38.24 61.36ZM39.185 61.36C39.8783 61.36 40.465 61.12 40.945 60.64C41.4517 60.1333 41.7183 59.5333 41.745 58.84V36.56C41.6917 35.8667 41.4917 35.36 41.145 35.04C40.505 34.4533 39.8517 34.16 39.185 34.16H38.665V33.76H53.985C55.2917 33.76 56.3717 33.6667 57.225 33.48C58.0783 33.2667 58.5983 33.12 58.785 33.04V40.04L58.385 40V39.56C58.385 37.9067 57.7717 36.7333 56.545 36.04C55.9583 35.6933 55.265 35.5067 54.465 35.48H47.745V47.12H53.025C54.0117 47.0933 54.825 46.76 55.465 46.12C56.105 45.4533 56.425 44.64 56.425 43.68V43.32H56.825V52.56H56.425V52.24C56.425 51.2533 56.105 50.44 55.465 49.8C54.8517 49.16 54.065 48.8267 53.105 48.8H47.745V60.04H52.985C54.9317 60.04 56.5583 59.48 57.865 58.36C59.1983 57.24 60.185 55.6533 60.825 53.6H61.225L59.385 61.76H38.665V61.36H39.185ZM77.0794 35.4V58.88C77.106 59.5733 77.3594 60.16 77.8394 60.64C78.346 61.12 78.946 61.36 79.6394 61.36H80.1194L80.1594 61.76H67.9994V61.36H68.5194C69.186 61.36 69.7594 61.12 70.2394 60.64C70.746 60.16 71.026 59.5867 71.0794 58.92V35.4H65.6794C64.4527 35.4267 63.4794 35.8133 62.7594 36.56C62.0394 37.3067 61.6794 38.28 61.6794 39.48V39.96H61.2794V33C62.3727 33.4533 63.946 33.6933 65.9994 33.72H82.1194C82.946 33.72 83.8394 33.64 84.7994 33.48C85.786 33.32 86.466 33.16 86.8394 33V39.96H86.4394V39.48C86.4394 37.8267 85.8127 36.6533 84.5594 35.96C83.9727 35.6133 83.266 35.4267 82.4394 35.4H77.0794Z" fill="white"/>
</svg>
